<ttFont>
<head>
    <!-- Most of this table will be recalculated by the compiler -->
    <tableVersion value="1.0"/>
    <fontRevision value="1.0"/>
    <checkSumAdjustment value="0xd8ca3a93"/>
    <magicNumber value="0x5f0f3cf5"/>
    <flags value="00000000 00000011"/>
    <unitsPerEm value="1050"/>
    <created value="Thu May 10 13:12:24 2018"/>
    <modified value="Thu May 10 13:12:24 2018"/>
    <xMin value="0"/>
    <yMin value="-125"/>
    <xMax value="875"/>
    <yMax value="750"/>
    <macStyle value="00000000 00000000"/>
    <lowestRecPPEM value="3"/>
    <fontDirectionHint value="2"/>
    <indexToLocFormat value="0"/>
    <glyphDataFormat value="0"/>
  </head>
        <CharString name=".notdef">
          525 endchar
        </CharString>
        <CharString name=".null">
          0 endchar
        </CharString>
        <CharString name="A">
          875 625 625 rmoveto
          0 -125 rlineto
          125 0 rlineto
          0 -500 rlineto
          -250 0 rlineto
          0 250 rlineto
          -125 0 rlineto
          0 -250 rlineto
          -250 0 rlineto
          0 500 rlineto
          125 0 rlineto
          0 125 rlineto
          375 0 rlineto
          -250 -125 rmoveto
          0 -125 rlineto
          125 0 rlineto
          0 125 rlineto
          -125 0 rlineto
          endchar
        </CharString>
        <CharString name="B">
          875 625 0 rmoveto
          -500 0 rlineto
          0 625 rlineto
          500 0 rlineto
          0 -125 rlineto
          125 0 rlineto
          0 -125 rlineto
          -125 0 rlineto
          0 -125 rlineto
          125 0 rlineto
          0 -125 rlineto
          -125 0 rlineto
          0 -125 rlineto
          -250 500 rmoveto
          0 -125 rlineto
          125 0 rlineto
          0 125 rlineto
          -125 0 rlineto
          0 -250 rmoveto
          0 -125 rlineto
          125 0 rlineto
          0 125 rlineto
          -125 0 rlineto
          endchar
        </CharString>
        <CharString name="C">
          875 625 0 rmoveto
          -375 0 rlineto
          0 125 rlineto
          -125 0 rlineto
          0 375 rlineto
          125 0 rlineto
          0 125 rlineto
          375 0 rlineto
          0 -125 rlineto
          125 0 rlineto
          0 -125 rlineto
          -250 0 rlineto
          0 125 rlineto
          -125 0 rlineto
          0 -375 rlineto
          125 0 rlineto
          0 125 rlineto
          250 0 rlineto
          0 -125 rlineto
          -125 0 rlineto
          0 -125 rlineto
          endchar
        </CharString>
        <CharString name="D">
          875 625 0 rmoveto
          -500 0 rlineto
          0 625 rlineto
          500 0 rlineto
          0 -125 rlineto
          125 0 rlineto
          0 -375 rlineto
          -125 0 rlineto
          0 -125 rlineto
          -125 125 rmoveto
          0 375 rlineto
          -125 0 rlineto
          0 -375 rlineto
          125 0 rlineto
          endchar
        </CharString>
        <CharString name="E">
          750 625 625 rmoveto
          0 -125 rlineto
          -250 0 rlineto
          0 -125 rlineto
          250 0 rlineto
          0 -125 rlineto
          -250 0 rlineto
          0 -125 rlineto
          250 0 rlineto
          0 -125 rlineto
          -500 0 rlineto
          0 625 rlineto
          500 0 rlineto
          endchar
        </CharString>
        <CharString name="F">
          750 375 0 rmoveto
          -250 0 rlineto
          0 625 rlineto
          500 0 rlineto
          0 -125 rlineto
          -250 0 rlineto
          0 -125 rlineto
          250 0 rlineto
          0 -125 rlineto
          -250 0 rlineto
          0 -250 rlineto
          endchar
        </CharString>
        <CharString name="G">
          875 625 0 rmoveto
          -375 0 rlineto
          0 125 rlineto
          -125 0 rlineto
          0 375 rlineto
          125 0 rlineto
          0 125 rlineto
          500 0 rlineto
          0 -125 rlineto
          -375 0 rlineto
          0 -375 rlineto
          125 0 rlineto
          0 250 rlineto
          250 0 rlineto
          0 -250 rlineto
          -125 0 rlineto
          0 -125 rlineto
          endchar
        </CharString>
        <CharString name="H">
          875 375 0 rmoveto
          -250 0 rlineto
          0 625 rlineto
          250 0 rlineto
          0 -250 rlineto
          125 0 rlineto
          0 250 rlineto
          250 0 rlineto
          0 -625 rlineto
          -250 0 rlineto
          0 250 rlineto
          -125 0 rlineto
          0 -250 rlineto
          endchar
        </CharString>
        <CharString name="I">
          500 375 0 rmoveto
          -250 0 rlineto
          0 625 rlineto
          250 0 rlineto
          0 -625 rlineto
          endchar
        </CharString>
        <CharString name="J">
          875 625 0 rmoveto
          -375 0 rlineto
          0 125 rlineto
          -125 0 rlineto
          0 125 rlineto
          250 0 rlineto
          0 -125 rlineto
          125 0 rlineto
          0 500 rlineto
          250 0 rlineto
          0 -500 rlineto
          -125 0 rlineto
          0 -125 rlineto
          endchar
        </CharString>
        <CharString name="K">
          875 375 0 rmoveto
          -250 0 rlineto
          0 625 rlineto
          250 0 rlineto
          0 -125 rlineto
          125 0 rlineto
          0 125 rlineto
          250 0 rlineto
          0 -125 rlineto
          -125 0 rlineto
          0 -125 rlineto
          -125 0 rlineto
          0 -125 rlineto
          125 0 rlineto
          0 -125 rlineto
          125 0 rlineto
          0 -125 rlineto
          -250 0 rlineto
          0 125 rlineto
          -125 0 rlineto
          0 -125 rlineto
          endchar
        </CharString>
        <CharString name="L">
          750 375 625 rmoveto
          0 -500 rlineto
          250 0 rlineto
          0 -125 rlineto
          -500 0 rlineto
          0 625 rlineto
          250 0 rlineto
          endchar
        </CharString>
        <CharString name="M">
          1000 375 0 rmoveto
          -250 0 rlineto
          0 625 rlineto
          250 0 rlineto
          0 -125 rlineto
          250 0 rlineto
          0 125 rlineto
          250 0 rlineto
          0 -625 rlineto
          -250 0 rlineto
          0 250 rlineto
          -250 0 rlineto
          0 -250 rlineto
          endchar
        </CharString>
        <CharString name="N">
          1000 375 0 rmoveto
          -250 0 rlineto
          0 625 rlineto
          250 0 rlineto
          0 -125 rlineto
          125 0 rlineto
          0 -125 rlineto
          125 0 rlineto
          0 250 rlineto
          250 0 rlineto
          0 -625 rlineto
          -250 0 rlineto
          0 125 rlineto
          -125 0 rlineto
          0 125 rlineto
          -125 0 rlineto
          0 -250 rlineto
          endchar
        </CharString>
        <CharString name="O">
          875 625 0 rmoveto
          -375 0 rlineto
          0 125 rlineto
          -125 0 rlineto
          0 375 rlineto
          125 0 rlineto
          0 125 rlineto
          375 0 rlineto
          0 -125 rlineto
          125 0 rlineto
          0 -375 rlineto
          -125 0 rlineto
          0 -125 rlineto
          -250 500 rmoveto
          0 -375 rlineto
          125 0 rlineto
          0 375 rlineto
          -125 0 rlineto
          endchar
        </CharString>
        <CharString name="P">
          875 375 0 rmoveto
          -250 0 rlineto
          0 625 rlineto
          500 0 rlineto
          0 -125 rlineto
          125 0 rlineto
          0 -125 rlineto
          -125 0 rlineto
          0 -125 rlineto
          -250 0 rlineto
          0 -250 rlineto
          0 500 rmoveto
          0 -125 rlineto
          125 0 rlineto
          0 125 rlineto
          -125 0 rlineto
          endchar
        </CharString>
        <CharString name="Q">
          875 500 0 rmoveto
          -250 0 rlineto
          0 125 rlineto
          -125 0 rlineto
          0 375 rlineto
          125 0 rlineto
          0 125 rlineto
          375 0 rlineto
          0 -125 rlineto
          125 0 rlineto
          0 -375 rlineto
          -125 0 rlineto
          0 -125 rlineto
          125 0 rlineto
          0 -125 rlineto
          -250 0 rlineto
          0 125 rlineto
          -125 500 rmoveto
          0 -375 rlineto
          125 0 rlineto
          0 375 rlineto
          -125 0 rlineto
          endchar
        </CharString>
        <CharString name="R">
          875 375 0 rmoveto
          -250 0 rlineto
          0 625 rlineto
          500 0 rlineto
          0 -125 rlineto
          125 0 rlineto
          0 -125 rlineto
          -125 0 rlineto
          0 -250 rlineto
          125 0 rlineto
          0 -125 rlineto
          -250 0 rlineto
          0 125 rlineto
          -125 0 rlineto
          0 -125 rlineto
          0 500 rmoveto
          0 -125 rlineto
          125 0 rlineto
          0 125 rlineto
          -125 0 rlineto
          endchar
        </CharString>
        <CharString name="S">
          875 625 0 rmoveto
          -500 0 rlineto
          0 125 rlineto
          375 0 rlineto
          0 125 rlineto
          -250 0 rlineto
          0 125 rlineto
          -125 0 rlineto
          0 125 rlineto
          125 0 rlineto
          0 125 rlineto
          500 0 rlineto
          0 -125 rlineto
          -375 0 rlineto
          0 -125 rlineto
          250 0 rlineto
          0 -125 rlineto
          125 0 rlineto
          0 -125 rlineto
          -125 0 rlineto
          0 -125 rlineto
          endchar
        </CharString>
        <CharString name="T">
          750 500 0 rmoveto
          -250 0 rlineto
          0 500 rlineto
          -125 0 rlineto
          0 125 rlineto
          500 0 rlineto
          0 -125 rlineto
          -125 0 rlineto
          0 -500 rlineto
          endchar
        </CharString>
        <CharString name="U">
          875 625 0 rmoveto
          -375 0 rlineto
          0 125 rlineto
          -125 0 rlineto
          0 500 rlineto
          250 0 rlineto
          0 -500 rlineto
          125 0 rlineto
          0 500 rlineto
          250 0 rlineto
          0 -500 rlineto
          -125 0 rlineto
          0 -125 rlineto
          endchar
        </CharString>
        <CharString name="V">
          1000 625 0 rmoveto
          -250 0 rlineto
          0 125 rlineto
          -125 0 rlineto
          0 250 rlineto
          -125 0 rlineto
          0 250 rlineto
          250 0 rlineto
          0 -250 rlineto
          250 0 rlineto
          0 250 rlineto
          250 0 rlineto
          0 -250 rlineto
          -125 0 rlineto
          0 -250 rlineto
          -125 0 rlineto
          0 -125 rlineto
          endchar
        </CharString>
        <CharString name="W">
          1000 750 0 rmoveto
          -500 0 rlineto
          0 125 rlineto
          -125 0 rlineto
          0 500 rlineto
          250 0 rlineto
          0 -125 rlineto
          250 0 rlineto
          0 125 rlineto
          250 0 rlineto
          0 -500 rlineto
          -125 0 rlineto
          0 -125 rlineto
          endchar
        </CharString>
        <CharString name="X">
          1000 375 0 rmoveto
          -250 0 rlineto
          0 125 rlineto
          125 0 rlineto
          0 125 rlineto
          125 0 rlineto
          0 125 rlineto
          -125 0 rlineto
          0 125 rlineto
          -125 0 rlineto
          0 125 rlineto
          250 0 rlineto
          0 -125 rlineto
          250 0 rlineto
          0 125 rlineto
          250 0 rlineto
          0 -125 rlineto
          -125 0 rlineto
          0 -125 rlineto
          -125 0 rlineto
          0 -125 rlineto
          125 0 rlineto
          0 -125 rlineto
          125 0 rlineto
          0 -125 rlineto
          -250 0 rlineto
          0 125 rlineto
          -250 0 rlineto
          0 -125 rlineto
          endchar
        </CharString>
        <CharString name="Y">
          1000 625 0 rmoveto
          -250 0 rlineto
          0 375 rlineto
          -125 0 rlineto
          0 125 rlineto
          -125 0 rlineto
          0 125 rlineto
          250 0 rlineto
          0 -125 rlineto
          250 0 rlineto
          0 125 rlineto
          250 0 rlineto
          0 -125 rlineto
          -125 0 rlineto
          0 -125 rlineto
          -125 0 rlineto
          0 -375 rlineto
          endchar
        </CharString>
        <CharString name="Z">
          750 625 0 rmoveto
          -500 0 rlineto
          0 250 rlineto
          125 0 rlineto
          0 125 rlineto
          125 0 rlineto
          0 125 rlineto
          -250 0 rlineto
          0 125 rlineto
          500 0 rlineto
          0 -250 rlineto
          -125 0 rlineto
          0 -125 rlineto
          -125 0 rlineto
          0 -125 rlineto
          250 0 rlineto
          0 -125 rlineto
          endchar
        </CharString>
        <CharString name="a">
          875 625 625 rmoveto
          0 -125 rlineto
          125 0 rlineto
          0 -500 rlineto
          -250 0 rlineto
          0 250 rlineto
          -125 0 rlineto
          0 -250 rlineto
          -250 0 rlineto
          0 500 rlineto
          125 0 rlineto
          0 125 rlineto
          375 0 rlineto
          -250 -125 rmoveto
          0 -125 rlineto
          125 0 rlineto
          0 125 rlineto
          -125 0 rlineto
          endchar
        </CharString>
        <CharString name="ampersand">
          875 375 0 rmoveto
          -125 0 rlineto
          0 125 rlineto
          -125 0 rlineto
          0 125 rlineto
          125 0 rlineto
          0 125 rlineto
          -125 0 rlineto
          0 125 rlineto
          125 0 rlineto
          0 125 rlineto
          125 0 rlineto
          0 125 rlineto
          250 0 rlineto
          0 -125 rlineto
          125 0 rlineto
          0 -125 rlineto
          -375 0 rlineto
          0 -125 rlineto
          250 0 rlineto
          0 -125 rlineto
          -250 0 rlineto
          0 -125 rlineto
          375 0 rlineto
          0 -125 rlineto
          -125 0 rlineto
          0 -125 rlineto
          -250 0 rlineto
          0 125 rlineto
          endchar
        </CharString>
        <CharString name="asciicircum">
          750 625 375 rmoveto
          -500 0 rlineto
          0 125 rlineto
          125 0 rlineto
          0 125 rlineto
          250 0 rlineto
          0 -125 rlineto
          125 0 rlineto
          0 -125 rlineto
          endchar
        </CharString>
        <CharString name="asciitilde">
          875 625 375 rmoveto
          -500 0 rlineto
          0 125 rlineto
          125 0 rlineto
          0 125 rlineto
          500 0 rlineto
          0 -125 rlineto
          -125 0 rlineto
          0 -125 rlineto
          endchar
        </CharString>
        <CharString name="asterisk">
          1000 625 0 rmoveto
          -250 0 rlineto
          0 125 rlineto
          -250 0 rlineto
          0 125 rlineto
          125 0 rlineto
          0 125 rlineto
          -125 0 rlineto
          0 125 rlineto
          250 0 rlineto
          0 125 rlineto
          250 0 rlineto
          0 -125 rlineto
          250 0 rlineto
          0 -125 rlineto
          -125 0 rlineto
          0 -125 rlineto
          125 0 rlineto
          0 -125 rlineto
          -250 0 rlineto
          0 -125 rlineto
          endchar
        </CharString>
        <CharString name="at">
          1000 250 0 rmoveto
          0 0 rlineto
          125 125 rmoveto
          0 125 rlineto
          375 0 rlineto
          0 125 rlineto
          125 0 rlineto
          0 125 rlineto
          -125 0 rlineto
          0 125 rlineto
          -500 0 rlineto
          0 -125 rlineto
          -125 0 rlineto
          0 -375 rlineto
          125 0 rlineto
          0 -125 rlineto
          500 0 rlineto
          0 125 rlineto
          -375 0 rlineto
          endchar
        </CharString>
        <CharString name="b">
          875 625 0 rmoveto
          -500 0 rlineto
          0 625 rlineto
          500 0 rlineto
          0 -125 rlineto
          125 0 rlineto
          0 -125 rlineto
          -125 0 rlineto
          0 -125 rlineto
          125 0 rlineto
          0 -125 rlineto
          -125 0 rlineto
          0 -125 rlineto
          -250 500 rmoveto
          0 -125 rlineto
          125 0 rlineto
          0 125 rlineto
          -125 0 rlineto
          0 -250 rmoveto
          0 -125 rlineto
          125 0 rlineto
          0 125 rlineto
          -125 0 rlineto
          endchar
        </CharString>
        <CharString name="backslash">
          750 625 0 rmoveto
          -250 0 rlineto
          0 250 rlineto
          -125 0 rlineto
          0 125 rlineto
          -125 0 rlineto
          0 250 rlineto
          250 0 rlineto
          0 -250 rlineto
          125 0 rlineto
          0 -125 rlineto
          125 0 rlineto
          0 -250 rlineto
          endchar
        </CharString>
        <CharString name="bar">
          500 375 -125 rmoveto
          -250 0 rlineto
          0 875 rlineto
          250 0 rlineto
          0 -875 rlineto
          endchar
        </CharString>
        <CharString name="braceleft">
          750 625 0 rmoveto
          -375 0 rlineto
          0 250 rlineto
          -125 0 rlineto
          0 125 rlineto
          125 0 rlineto
          0 250 rlineto
          375 0 rlineto
          0 -125 rlineto
          -125 0 rlineto
          0 -125 rlineto
          -125 0 rlineto
          0 -125 rlineto
          125 0 rlineto
          0 -125 rlineto
          125 0 rlineto
          0 -125 rlineto
          endchar
        </CharString>
        <CharString name="braceright">
          750 625 375 rmoveto
          0 -125 rlineto
          -125 0 rlineto
          0 -250 rlineto
          -375 0 rlineto
          0 125 rlineto
          125 0 rlineto
          0 125 rlineto
          125 0 rlineto
          0 125 rlineto
          -125 0 rlineto
          0 125 rlineto
          -125 0 rlineto
          0 125 rlineto
          375 0 rlineto
          0 -250 rlineto
          125 0 rlineto
          endchar
        </CharString>
        <CharString name="bracketleft">
          625 500 0 rmoveto
          -375 0 rlineto
          0 625 rlineto
          375 0 rlineto
          0 -125 rlineto
          -125 0 rlineto
          0 -375 rlineto
          125 0 rlineto
          0 -125 rlineto
          endchar
        </CharString>
        <CharString name="bracketright">
          625 500 625 rmoveto
          0 -625 rlineto
          -375 0 rlineto
          0 125 rlineto
          125 0 rlineto
          0 375 rlineto
          -125 0 rlineto
          0 125 rlineto
          375 0 rlineto
          endchar
        </CharString>
        <CharString name="c">
          875 625 0 rmoveto
          -375 0 rlineto
          0 125 rlineto
          -125 0 rlineto
          0 375 rlineto
          125 0 rlineto
          0 125 rlineto
          375 0 rlineto
          0 -125 rlineto
          125 0 rlineto
          0 -125 rlineto
          -250 0 rlineto
          0 125 rlineto
          -125 0 rlineto
          0 -375 rlineto
          125 0 rlineto
          0 125 rlineto
          250 0 rlineto
          0 -125 rlineto
          -125 0 rlineto
          0 -125 rlineto
          endchar
        </CharString>
        <CharString name="colon">
          375 0 125 rmoveto
          0 125 rlineto
          250 0 rlineto
          0 -125 rlineto
          -250 0 rlineto
          0 250 rmoveto
          0 125 rlineto
          250 0 rlineto
          0 -125 rlineto
          -250 0 rlineto
          endchar
        </CharString>
        <CharString name="comma">
          500 0 0 rmoveto
          125 0 rlineto
          0 125 rlineto
          250 0 rlineto
          0 -125 rlineto
          -125 0 rlineto
          0 -125 rlineto
          -250 0 rlineto
          0 125 rlineto
          endchar
        </CharString>
        <CharString name="d">
          875 625 0 rmoveto
          -500 0 rlineto
          0 625 rlineto
          500 0 rlineto
          0 -125 rlineto
          125 0 rlineto
          0 -375 rlineto
          -125 0 rlineto
          0 -125 rlineto
          -125 125 rmoveto
          0 375 rlineto
          -125 0 rlineto
          0 -375 rlineto
          125 0 rlineto
          endchar
        </CharString>
        <CharString name="dollar">
          875 250 0 rmoveto
          -125 0 rlineto
          0 125 rlineto
          375 0 rlineto
          0 125 rlineto
          -250 0 rlineto
          0 125 rlineto
          -125 0 rlineto
          0 125 rlineto
          125 0 rlineto
          0 125 rlineto
          125 0 rlineto
          0 125 rlineto
          250 0 rlineto
          0 -125 rlineto
          125 0 rlineto
          0 -125 rlineto
          -375 0 rlineto
          0 -125 rlineto
          250 0 rlineto
          0 -125 rlineto
          125 0 rlineto
          0 -250 rlineto
          -250 0 rlineto
          0 -125 rlineto
          -250 0 rlineto
          0 125 rlineto
          endchar
        </CharString>
        <CharString name="e">
          750 625 625 rmoveto
          0 -125 rlineto
          -250 0 rlineto
          0 -125 rlineto
          250 0 rlineto
          0 -125 rlineto
          -250 0 rlineto
          0 -125 rlineto
          250 0 rlineto
          0 -125 rlineto
          -500 0 rlineto
          0 625 rlineto
          500 0 rlineto
          endchar
        </CharString>
        <CharString name="eight">
          875 625 0 rmoveto
          -375 0 rlineto
          0 125 rlineto
          -125 0 rlineto
          0 125 rlineto
          125 0 rlineto
          0 125 rlineto
          -125 0 rlineto
          0 125 rlineto
          125 0 rlineto
          0 125 rlineto
          375 0 rlineto
          0 -125 rlineto
          125 0 rlineto
          0 -125 rlineto
          -125 0 rlineto
          0 -125 rlineto
          125 0 rlineto
          0 -125 rlineto
          -125 0 rlineto
          0 -125 rlineto
          -250 500 rmoveto
          0 -125 rlineto
          125 0 rlineto
          0 125 rlineto
          -125 0 rlineto
          0 -250 rmoveto
          0 -125 rlineto
          125 0 rlineto
          0 125 rlineto
          -125 0 rlineto
          endchar
        </CharString>
        <CharString name="equal">
          750 625 250 rmoveto
          0 -125 rlineto
          -500 0 rlineto
          0 125 rlineto
          500 0 rlineto
          0 250 rmoveto
          0 -125 rlineto
          -500 0 rlineto
          0 125 rlineto
          500 0 rlineto
          endchar
        </CharString>
        <CharString name="exclam">
          500 375 250 rmoveto
          -250 0 rlineto
          0 375 rlineto
          250 0 rlineto
          0 -375 rlineto
          -250 -250 rmoveto
          0 125 rlineto
          250 0 rlineto
          0 -125 rlineto
          -250 0 rlineto
          endchar
        </CharString>
        <CharString name="f">
          750 375 0 rmoveto
          -250 0 rlineto
          0 625 rlineto
          500 0 rlineto
          0 -125 rlineto
          -250 0 rlineto
          0 -125 rlineto
          250 0 rlineto
          0 -125 rlineto
          -250 0 rlineto
          0 -250 rlineto
          endchar
        </CharString>
        <CharString name="five">
          875 625 0 rmoveto
          -500 0 rlineto
          0 125 rlineto
          375 0 rlineto
          0 125 rlineto
          -375 0 rlineto
          0 375 rlineto
          625 0 rlineto
          0 -125 rlineto
          -375 0 rlineto
          0 -125 rlineto
          250 0 rlineto
          0 -125 rlineto
          125 0 rlineto
          0 -125 rlineto
          -125 0 rlineto
          0 -125 rlineto
          endchar
        </CharString>
        <CharString name="four">
          875 625 625 rmoveto
          -500 0 rlineto
          0 -500 rlineto
          250 0 rlineto
          0 -125 rlineto
          250 0 rlineto
          0 125 rlineto
          125 0 rlineto
          0 125 rlineto
          -125 0 rlineto
          0 375 rlineto
          endchar
        </CharString>
        <CharString name="g">
          875 625 0 rmoveto
          -375 0 rlineto
          0 125 rlineto
          -125 0 rlineto
          0 375 rlineto
          125 0 rlineto
          0 125 rlineto
          500 0 rlineto
          0 -125 rlineto
          -375 0 rlineto
          0 -375 rlineto
          125 0 rlineto
          0 250 rlineto
          250 0 rlineto
          0 -250 rlineto
          -125 0 rlineto
          0 -125 rlineto
          endchar
        </CharString>
        <CharString name="grave">
          625 500 375 rmoveto
          -250 0 rlineto
          0 125 rlineto
          -125 0 rlineto
          0 125 rlineto
          250 0 rlineto
          0 -125 rlineto
          125 0 rlineto
          0 -125 rlineto
          endchar
        </CharString>
        <CharString name="greater">
          750 625 375 rmoveto
          0 -125 rlineto
          -125 0 rlineto
          0 -125 rlineto
          -125 0 rlineto
          0 -125 rlineto
          -250 0 rlineto
          0 125 rlineto
          125 0 rlineto
          0 125 rlineto
          125 0 rlineto
          0 125 rlineto
          -125 0 rlineto
          0 125 rlineto
          -125 0 rlineto
          0 125 rlineto
          250 0 rlineto
          0 -125 rlineto
          125 0 rlineto
          0 -125 rlineto
          125 0 rlineto
          endchar
        </CharString>
        <CharString name="h">
          875 375 0 rmoveto
          -250 0 rlineto
          0 625 rlineto
          250 0 rlineto
          0 -250 rlineto
          125 0 rlineto
          0 250 rlineto
          250 0 rlineto
          0 -625 rlineto
          -250 0 rlineto
          0 250 rlineto
          -125 0 rlineto
          0 -250 rlineto
          endchar
        </CharString>
        <CharString name="hyphen">
          750 625 375 rmoveto
          0 -125 rlineto
          -500 0 rlineto
          0 125 rlineto
          500 0 rlineto
          endchar
        </CharString>
        <CharString name="i">
          500 375 0 rmoveto
          -250 0 rlineto
          0 625 rlineto
          250 0 rlineto
          0 -625 rlineto
          endchar
        </CharString>
        <CharString name="j">
          875 625 0 rmoveto
          -375 0 rlineto
          0 125 rlineto
          -125 0 rlineto
          0 125 rlineto
          250 0 rlineto
          0 -125 rlineto
          125 0 rlineto
          0 500 rlineto
          250 0 rlineto
          0 -500 rlineto
          -125 0 rlineto
          0 -125 rlineto
          endchar
        </CharString>
        <CharString name="k">
          875 375 0 rmoveto
          -250 0 rlineto
          0 625 rlineto
          250 0 rlineto
          0 -125 rlineto
          125 0 rlineto
          0 125 rlineto
          250 0 rlineto
          0 -125 rlineto
          -125 0 rlineto
          0 -125 rlineto
          -125 0 rlineto
          0 -125 rlineto
          125 0 rlineto
          0 -125 rlineto
          125 0 rlineto
          0 -125 rlineto
          -250 0 rlineto
          0 125 rlineto
          -125 0 rlineto
          0 -125 rlineto
          endchar
        </CharString>
        <CharString name="l">
          750 375 625 rmoveto
          0 -500 rlineto
          250 0 rlineto
          0 -125 rlineto
          -500 0 rlineto
          0 625 rlineto
          250 0 rlineto
          endchar
        </CharString>
        <CharString name="less">
          750 625 0 rmoveto
          -250 0 rlineto
          0 125 rlineto
          -125 0 rlineto
          0 125 rlineto
          -125 0 rlineto
          0 125 rlineto
          125 0 rlineto
          0 125 rlineto
          125 0 rlineto
          0 125 rlineto
          250 0 rlineto
          0 -125 rlineto
          -125 0 rlineto
          0 -125 rlineto
          -125 0 rlineto
          0 -125 rlineto
          125 0 rlineto
          0 -125 rlineto
          125 0 rlineto
          0 -125 rlineto
          endchar
        </CharString>
        <CharString name="m">
          1000 375 0 rmoveto
          -250 0 rlineto
          0 625 rlineto
          250 0 rlineto
          0 -125 rlineto
          250 0 rlineto
          0 125 rlineto
          250 0 rlineto
          0 -625 rlineto
          -250 0 rlineto
          0 250 rlineto
          -250 0 rlineto
          0 -250 rlineto
          endchar
        </CharString>
        <CharString name="n">
          1000 375 0 rmoveto
          -250 0 rlineto
          0 625 rlineto
          250 0 rlineto
          0 -125 rlineto
          125 0 rlineto
          0 -125 rlineto
          125 0 rlineto
          0 250 rlineto
          250 0 rlineto
          0 -625 rlineto
          -250 0 rlineto
          0 125 rlineto
          -125 0 rlineto
          0 125 rlineto
          -125 0 rlineto
          0 -250 rlineto
          endchar
        </CharString>
        <CharString name="nine">
          875 625 0 rmoveto
          -375 0 rlineto
          0 125 rlineto
          250 0 rlineto
          0 125 rlineto
          -250 0 rlineto
          0 125 rlineto
          -125 0 rlineto
          0 125 rlineto
          125 0 rlineto
          0 125 rlineto
          375 0 rlineto
          0 -125 rlineto
          125 0 rlineto
          0 -375 rlineto
          -125 0 rlineto
          0 -125 rlineto
          -250 500 rmoveto
          0 -125 rlineto
          125 0 rlineto
          0 125 rlineto
          -125 0 rlineto
          endchar
        </CharString>
        <CharString name="nonmarkingreturn">
          625 endchar
        </CharString>
        <CharString name="numbersign">
          1000 750 0 rmoveto
          -500 0 rlineto
          0 125 rlineto
          -125 0 rlineto
          0 125 rlineto
          125 0 rlineto
          0 125 rlineto
          -125 0 rlineto
          0 125 rlineto
          125 0 rlineto
          0 125 rlineto
          500 0 rlineto
          0 -125 rlineto
          125 0 rlineto
          0 -125 rlineto
          -125 0 rlineto
          0 -125 rlineto
          125 0 rlineto
          0 -125 rlineto
          -125 0 rlineto
          0 -125 rlineto
          endchar
        </CharString>
        <CharString name="o">
          875 625 0 rmoveto
          -375 0 rlineto
          0 125 rlineto
          -125 0 rlineto
          0 375 rlineto
          125 0 rlineto
          0 125 rlineto
          375 0 rlineto
          0 -125 rlineto
          125 0 rlineto
          0 -375 rlineto
          -125 0 rlineto
          0 -125 rlineto
          -250 500 rmoveto
          0 -375 rlineto
          125 0 rlineto
          0 375 rlineto
          -125 0 rlineto
          endchar
        </CharString>
        <CharString name="one">
          750 250 125 rmoveto
          0 375 rlineto
          -125 0 rlineto
          0 125 rlineto
          375 0 rlineto
          0 -500 rlineto
          125 0 rlineto
          0 -125 rlineto
          -500 0 rlineto
          0 125 rlineto
          125 0 rlineto
          endchar
        </CharString>
        <CharString name="p">
          875 375 0 rmoveto
          -250 0 rlineto
          0 625 rlineto
          500 0 rlineto
          0 -125 rlineto
          125 0 rlineto
          0 -125 rlineto
          -125 0 rlineto
          0 -125 rlineto
          -250 0 rlineto
          0 -250 rlineto
          0 500 rmoveto
          0 -125 rlineto
          125 0 rlineto
          0 125 rlineto
          -125 0 rlineto
          endchar
        </CharString>
        <CharString name="parenleft">
          625 500 0 rmoveto
          -250 0 rlineto
          0 125 rlineto
          -125 0 rlineto
          0 375 rlineto
          125 0 rlineto
          0 125 rlineto
          250 0 rlineto
          0 -125 rlineto
          -125 0 rlineto
          0 -375 rlineto
          125 0 rlineto
          0 -125 rlineto
          endchar
        </CharString>
        <CharString name="parenright">
          625 500 500 rmoveto
          0 -375 rlineto
          -125 0 rlineto
          0 -125 rlineto
          -250 0 rlineto
          0 125 rlineto
          125 0 rlineto
          0 375 rlineto
          -125 0 rlineto
          0 125 rlineto
          250 0 rlineto
          0 -125 rlineto
          125 0 rlineto
          endchar
        </CharString>
        <CharString name="percent">
          1000 875 0 rmoveto
          -625 0 rlineto
          0 250 rlineto
          125 0 rlineto
          0 125 rlineto
          -250 0 rlineto
          0 250 rlineto
          625 0 rlineto
          0 -250 rlineto
          -125 0 rlineto
          0 -125 rlineto
          250 0 rlineto
          0 -250 rlineto
          endchar
        </CharString>
        <CharString name="period">
          375 0 0 rmoveto
          0 125 rlineto
          250 0 rlineto
          0 -125 rlineto
          -250 0 rlineto
          endchar
        </CharString>
        <CharString name="plus">
          1000 125 375 rmoveto
          0 -125 rlineto
          250 0 rlineto
          0 -250 rlineto
          250 0 rlineto
          0 250 rlineto
          250 0 rlineto
          0 125 rlineto
          -250 0 rlineto
          0 250 rlineto
          -250 0 rlineto
          0 -250 rlineto
          -250 0 rlineto
          endchar
        </CharString>
        <CharString name="q">
          875 500 0 rmoveto
          -250 0 rlineto
          0 125 rlineto
          -125 0 rlineto
          0 375 rlineto
          125 0 rlineto
          0 125 rlineto
          375 0 rlineto
          0 -125 rlineto
          125 0 rlineto
          0 -375 rlineto
          -125 0 rlineto
          0 -125 rlineto
          125 0 rlineto
          0 -125 rlineto
          -250 0 rlineto
          0 125 rlineto
          -125 500 rmoveto
          0 -375 rlineto
          125 0 rlineto
          0 375 rlineto
          -125 0 rlineto
          endchar
        </CharString>
        <CharString name="question">
          875 250 0 rmoveto
          0 125 rlineto
          250 0 rlineto
          0 -125 rlineto
          -250 0 rlineto
          375 250 rmoveto
          -375 0 rlineto
          0 125 rlineto
          250 0 rlineto
          0 125 rlineto
          -375 0 rlineto
          0 125 rlineto
          500 0 rlineto
          0 -125 rlineto
          125 0 rlineto
          0 -125 rlineto
          -125 0 rlineto
          0 -125 rlineto
          endchar
        </CharString>
        <CharString name="quotedbl">
          750 625 625 rmoveto
          0 -250 rlineto
          -500 0 rlineto
          0 250 rlineto
          500 0 rlineto
          endchar
        </CharString>
        <CharString name="quotesingle">
          500 375 625 rmoveto
          0 -250 rlineto
          -250 0 rlineto
          0 250 rlineto
          250 0 rlineto
          endchar
        </CharString>
        <CharString name="r">
          875 375 0 rmoveto
          -250 0 rlineto
          0 625 rlineto
          500 0 rlineto
          0 -125 rlineto
          125 0 rlineto
          0 -125 rlineto
          -125 0 rlineto
          0 -250 rlineto
          125 0 rlineto
          0 -125 rlineto
          -250 0 rlineto
          0 125 rlineto
          -125 0 rlineto
          0 -125 rlineto
          0 500 rmoveto
          0 -125 rlineto
          125 0 rlineto
          0 125 rlineto
          -125 0 rlineto
          endchar
        </CharString>
        <CharString name="s">
          875 625 0 rmoveto
          -500 0 rlineto
          0 125 rlineto
          375 0 rlineto
          0 125 rlineto
          -250 0 rlineto
          0 125 rlineto
          -125 0 rlineto
          0 125 rlineto
          125 0 rlineto
          0 125 rlineto
          500 0 rlineto
          0 -125 rlineto
          -375 0 rlineto
          0 -125 rlineto
          250 0 rlineto
          0 -125 rlineto
          125 0 rlineto
          0 -125 rlineto
          -125 0 rlineto
          0 -125 rlineto
          endchar
        </CharString>
        <CharString name="semicolon">
          500 125 375 rmoveto
          0 125 rlineto
          250 0 rlineto
          0 -125 rlineto
          -250 0 rlineto
          -125 -250 rmoveto
          125 0 rlineto
          0 125 rlineto
          250 0 rlineto
          0 -125 rlineto
          -125 0 rlineto
          0 -125 rlineto
          -250 0 rlineto
          0 125 rlineto
          endchar
        </CharString>
        <CharString name="seven">
          875 500 0 rmoveto
          -250 0 rlineto
          0 250 rlineto
          125 0 rlineto
          0 125 rlineto
          125 0 rlineto
          0 125 rlineto
          -375 0 rlineto
          0 125 rlineto
          625 0 rlineto
          0 -250 rlineto
          -125 0 rlineto
          0 -125 rlineto
          -125 0 rlineto
          0 -250 rlineto
          endchar
        </CharString>
        <CharString name="six">
          875 625 0 rmoveto
          -375 0 rlineto
          0 125 rlineto
          -125 0 rlineto
          0 375 rlineto
          125 0 rlineto
          0 125 rlineto
          375 0 rlineto
          0 -125 rlineto
          -250 0 rlineto
          0 -125 rlineto
          250 0 rlineto
          0 -125 rlineto
          125 0 rlineto
          0 -125 rlineto
          -125 0 rlineto
          0 -125 rlineto
          -250 250 rmoveto
          0 -125 rlineto
          125 0 rlineto
          0 125 rlineto
          -125 0 rlineto
          endchar
        </CharString>
        <CharString name="slash">
          750 375 0 rmoveto
          -250 0 rlineto
          0 250 rlineto
          125 0 rlineto
          0 125 rlineto
          125 0 rlineto
          0 250 rlineto
          250 0 rlineto
          0 -250 rlineto
          -125 0 rlineto
          0 -125 rlineto
          -125 0 rlineto
          0 -250 rlineto
          endchar
        </CharString>
        <CharString name="space">
          625 endchar
        </CharString>
        <CharString name="t">
          750 500 0 rmoveto
          -250 0 rlineto
          0 500 rlineto
          -125 0 rlineto
          0 125 rlineto
          500 0 rlineto
          0 -125 rlineto
          -125 0 rlineto
          0 -500 rlineto
          endchar
        </CharString>
        <CharString name="three">
          875 625 0 rmoveto
          -500 0 rlineto
          0 125 rlineto
          375 0 rlineto
          0 125 rlineto
          -250 0 rlineto
          0 125 rlineto
          250 0 rlineto
          0 125 rlineto
          -375 0 rlineto
          0 125 rlineto
          500 0 rlineto
          0 -125 rlineto
          125 0 rlineto
          0 -125 rlineto
          -125 0 rlineto
          0 -125 rlineto
          125 0 rlineto
          0 -125 rlineto
          -125 0 rlineto
          0 -125 rlineto
          endchar
        </CharString>
        <CharString name="two">
          875 750 0 rmoveto
          -625 0 rlineto
          0 250 rlineto
          125 0 rlineto
          0 125 rlineto
          250 0 rlineto
          0 125 rlineto
          -375 0 rlineto
          0 125 rlineto
          500 0 rlineto
          0 -125 rlineto
          125 0 rlineto
          0 -125 rlineto
          -125 0 rlineto
          0 -125 rlineto
          -250 0 rlineto
          0 -125 rlineto
          375 0 rlineto
          0 -125 rlineto
          endchar
        </CharString>
        <CharString name="u">
          875 625 0 rmoveto
          -375 0 rlineto
          0 125 rlineto
          -125 0 rlineto
          0 500 rlineto
          250 0 rlineto
          0 -500 rlineto
          125 0 rlineto
          0 500 rlineto
          250 0 rlineto
          0 -500 rlineto
          -125 0 rlineto
          0 -125 rlineto
          endchar
        </CharString>
        <CharString name="underscore">
          875 750 0 rmoveto
          0 -125 rlineto
          -625 0 rlineto
          0 125 rlineto
          625 0 rlineto
          endchar
        </CharString>
        <CharString name="v">
          1000 625 0 rmoveto
          -250 0 rlineto
          0 125 rlineto
          -125 0 rlineto
          0 250 rlineto
          -125 0 rlineto
          0 250 rlineto
          250 0 rlineto
          0 -250 rlineto
          250 0 rlineto
          0 250 rlineto
          250 0 rlineto
          0 -250 rlineto
          -125 0 rlineto
          0 -250 rlineto
          -125 0 rlineto
          0 -125 rlineto
          endchar
        </CharString>
        <CharString name="w">
          1000 750 0 rmoveto
          -500 0 rlineto
          0 125 rlineto
          -125 0 rlineto
          0 500 rlineto
          250 0 rlineto
          0 -125 rlineto
          250 0 rlineto
          0 125 rlineto
          250 0 rlineto
          0 -500 rlineto
          -125 0 rlineto
          0 -125 rlineto
          endchar
        </CharString>
        <CharString name="x">
          1000 375 0 rmoveto
          -250 0 rlineto
          0 125 rlineto
          125 0 rlineto
          0 125 rlineto
          125 0 rlineto
          0 125 rlineto
          -125 0 rlineto
          0 125 rlineto
          -125 0 rlineto
          0 125 rlineto
          250 0 rlineto
          0 -125 rlineto
          250 0 rlineto
          0 125 rlineto
          250 0 rlineto
          0 -125 rlineto
          -125 0 rlineto
          0 -125 rlineto
          -125 0 rlineto
          0 -125 rlineto
          125 0 rlineto
          0 -125 rlineto
          125 0 rlineto
          0 -125 rlineto
          -250 0 rlineto
          0 125 rlineto
          -250 0 rlineto
          0 -125 rlineto
          endchar
        </CharString>
        <CharString name="y">
          1000 625 0 rmoveto
          -250 0 rlineto
          0 375 rlineto
          -125 0 rlineto
          0 125 rlineto
          -125 0 rlineto
          0 125 rlineto
          250 0 rlineto
          0 -125 rlineto
          250 0 rlineto
          0 125 rlineto
          250 0 rlineto
          0 -125 rlineto
          -125 0 rlineto
          0 -125 rlineto
          -125 0 rlineto
          0 -375 rlineto
          endchar
        </CharString>
        <CharString name="z">
          750 625 0 rmoveto
          -500 0 rlineto
          0 250 rlineto
          125 0 rlineto
          0 125 rlineto
          125 0 rlineto
          0 125 rlineto
          -250 0 rlineto
          0 125 rlineto
          500 0 rlineto
          0 -250 rlineto
          -125 0 rlineto
          0 -125 rlineto
          -125 0 rlineto
          0 -125 rlineto
          250 0 rlineto
          0 -125 rlineto
          endchar
        </CharString>
        <CharString name="zero">
          875 625 0 rmoveto
          -375 0 rlineto
          0 125 rlineto
          -125 0 rlineto
          0 375 rlineto
          125 0 rlineto
          0 125 rlineto
          375 0 rlineto
          0 -125 rlineto
          125 0 rlineto
          0 -375 rlineto
          -125 0 rlineto
          0 -125 rlineto
          -250 500 rmoveto
          0 -375 rlineto
          125 0 rlineto
          0 375 rlineto
          -125 0 rlineto
          endchar
        </CharString>
</ttFont>
